# 
# Generated by Sweet Home 3D - Tue Sep 24 09:47:56 CEST 2024
# http://www.sweethome3d.com/
# 
mtllib HoodCabinet100.mtl
g duct1
usemtl Duct1
v -20.558022 0.50000197 77.672745
v 8.839272 0.50000197 77.672745
v 8.839272 63.499992 77.67276
v -20.558022 63.499992 77.67276
v 8.839272 0.500004 58.072758
v -20.558022 0.500004 58.072754
v -20.558022 63.5 58.07276
v 8.839272 63.5 58.07277
v -20.759377 0.500004 58.272755
v -20.759377 0.50000197 77.47275
v -20.759377 63.499992 77.472755
v -20.759377 63.5 58.272762
v 8.839264 0.500004 58.272762
v 8.839264 0.50000197 77.472755
v 8.839264 63.499992 77.47276
v 8.839264 63.5 58.272774
v 9.040619 0.50000197 77.47275
v -20.759377 63.499992 77.47276
v 9.040619 63.499992 77.47276
v -20.759369 0.500004 58.272755
v 9.040627 0.500004 58.272755
v 9.040627 63.5 58.27277
v -20.759369 63.5 58.272762
v -20.558022 0.50000197 77.47275
v -20.558022 0.500004 58.272755
v -20.558022 63.5 58.272762
v -20.558022 63.499992 77.472755
v 9.040619 0.50000197 77.472755
v 9.040619 0.500004 58.272762
v 9.040619 63.5 58.272774
vt 0.0 0.0 0
vt 0.292 0.0 0
vt 0.292 0.45 0
vt 0.0 0.45 0
vt 0.192 0.0 0
vt 0.192 0.45 0
vt 0.296 0.0 0
vt 0.296 0.45 0
vt 0.002 0.0 0
vt 0.002 0.45 0
vt 0.294 0.002 0
vt -0.002 0.002 0
vt 0.192 0.002 0
vt 0.0 0.002 0
vn -0.0000001 -0.0000001 1.0
vn 0.0 -0.0000002 1.0
vn 0.0000001 0.0000001 -1.0
vn 0.0000003 0.0000002 -1.0
vn -1.0 0.0 0.0
vn 0.0000001 0.0000002 -1.0
vn 0.0 0.0000001 -1.0
vn -0.0000003 -0.0000001 1.0
vn 1.0 0.0 0.0
vn 0.7047236 -0.0000001 0.709482
vn -0.70473033 0.0000001 -0.7094752
vn -0.7047101 -0.0000001 0.7094953
vn 0.7047101 0.0000001 -0.7094953
vn 0.7047169 0.0000002 -0.70948863
vn 0.0 1.0 0.0
vn 0.0 1.0 0.0000004
f 1/1/1 2/2/1 3/3/1
f 1/1/2 3/3/2 4/4/2
f 5/1/3 6/2/3 7/3/3
f 5/1/4 7/3/4 8/4/4
f 9/1/5 10/5/5 11/6/5
f 9/1/5 11/6/5 12/4/5
f 13/1/5 14/5/5 15/6/5
f 13/1/5 15/6/5 16/4/5
f 17/1/6 10/7/6 18/8/6
f 17/1/7 18/8/7 19/4/7
f 20/1/2 21/7/2 22/8/2
f 20/1/8 22/8/8 23/4/8
f 24/1/9 25/5/9 26/6/9
f 24/1/9 26/6/9 27/4/9
f 28/1/9 29/5/9 30/6/9
f 28/1/9 30/6/9 19/4/9
f 2/1/10 17/9/10 19/10/10
f 2/1/10 19/10/10 3/4/10
f 6/1/11 20/9/11 23/10/11
f 6/1/11 23/10/11 7/4/11
f 10/1/12 1/9/12 4/10/12
f 10/1/12 4/10/12 18/4/12
f 21/1/13 5/9/13 8/10/13
f 21/1/14 8/10/14 22/4/14
f 4/1/15 3/2/15 19/11/15
f 4/1/15 19/11/15 18/12/15
f 8/1/15 7/2/15 23/11/15
f 8/1/15 23/11/15 22/12/15
f 12/1/16 11/5/16 27/13/16
f 12/1/16 27/13/16 26/14/16
f 16/1/16 15/5/16 19/13/16
f 16/1/16 19/13/16 30/14/16
g top
usemtl Top
v -55.859375 61.0 56.072758
v 44.140625 61.0 56.072758
v 44.140625 60.999996 97.072754
v -55.859375 60.999996 97.072754
v -55.859375 64.0 56.072758
v 44.140625 64.0 56.072758
v -55.859375 63.999996 95.572754
v 44.140625 63.999996 95.572754
v 44.140625 61.199993 97.072754
v -55.859375 61.199993 97.072754
v -55.859375 63.899998 95.77276
v 44.140625 63.899998 95.77276
vt -0.0 1.0 0
vt -0.41 1.0 0
vt -0.41 -0.0 0
vt -0.03 1.0 0
vt -0.03 -0.0 0
vt -0.0 0.41 0
vt -0.03 0.395 0
vt -0.03 0.41 0
vt -0.03 0.015 0
vt -0.395 1.0 0
vt -0.395 -0.0 0
vt -0.002 -0.0 0
vt -0.029 -0.013 0
vt -0.03 -0.015 0
vt -0.028 0.015 0
vt -0.027 0.013 0
vt -0.027 1.0 0
vt -0.027 -0.0 0
vt -0.002 1.0 0
vn -0.0 -1.0 -0.0000001
vn 0.0 0.0 -1.0
vn 0.0 1.0 0.0000001
vn 0.0 0.0 1.0
vn 0.0 0.4338138 0.90100265
vn 0.0 0.894434 0.44719997
f 31/1/17 32/15/17 33/16/17
f 31/1/17 33/16/17 34/17/17
f 32/1/18 31/15/18 35/18/18
f 32/1/18 35/18/18 36/19/18
f 31/1/5 34/20/5 37/21/5
f 31/1/5 37/21/5 35/19/5
f 33/1/9 32/20/9 36/22/9
f 33/1/9 36/22/9 38/23/9
f 37/1/19 38/15/19 36/24/19
f 37/1/19 36/24/19 35/25/19
f 34/1/20 33/15/20 39/15/20
f 34/1/20 39/15/20 40/1/20
f 34/1/5 40/26/5 41/27/5
f 34/1/5 41/27/5 37/28/5
f 39/1/9 33/9/9 38/29/9
f 39/1/9 38/29/9 42/30/9
f 40/1/21 39/15/21 42/31/21
f 40/1/21 42/31/21 41/32/21
f 41/1/22 42/15/22 38/33/22
f 41/1/22 38/33/22 37/26/22
g frame
usemtl Frame
v -54.359375 0.000005 56.072754
v -54.359375 0 97.072754
v -55.859375 0 97.072754
v -55.859375 0.000005 56.072754
v -54.359375 61.0 56.07276
v -54.359375 60.999996 97.072754
v -55.859375 61.0 56.07276
v 44.140625 0.000005 56.072754
v 44.140625 0 97.072754
v 42.640625 0 97.072754
v 42.640625 0.000005 56.072754
v 44.140625 61.0 56.07276
v 42.640625 61.0 56.07276
v 42.640625 60.999996 97.072754
v -54.359375 0.000006 58.072754
v 42.640625 0.000006 58.072754
v 42.640625 1.9999979 97.072754
v -54.359375 1.9999979 97.072754
v 42.640625 2.0000029 58.072754
v -54.359375 2.0000029 58.072754
v -54.359375 58.999996 95.072754
v 42.640625 58.999996 95.072754
v 42.640625 58.999996 97.072754
v -54.359375 58.999996 97.072754
v -54.359375 60.999996 95.072754
v 42.640625 60.999996 95.072754
vt 0.41 0.0 0
vt 0.41 0.015 0
vt 0.0 0.015 0
vt 0.41 0.76 0
vt 0.0 0.76 0
vt 0.015 0.0 0
vt 0.015 0.76 0
vt -0.2 0.0 0
vt 0.21 0.0 0
vt 0.21 0.015 0
vt -0.2 0.015 0
vt 0.21 0.76 0
vt -0.2 0.76 0
vt -0.185 0.0 0
vt -0.185 0.76 0
vt -0.0 0.97 0
vt -0.39 0.97 0
vt -0.39 -0.0 0
vt -0.02 0.97 0
vt -0.02 -0.0 0
vn -0.0 -1.0 -0.0000002
vn 0.0 -1.0 0.0
f 43/1/17 44/34/17 45/35/17
f 43/1/17 45/35/17 46/36/17
f 44/1/9 43/34/9 47/37/9
f 44/1/9 47/37/9 48/38/9
f 43/1/7 46/39/7 49/40/7
f 43/1/7 49/40/7 47/38/7
f 45/1/20 44/39/20 48/40/20
f 45/1/20 48/40/20 34/38/20
f 46/1/5 45/34/5 34/37/5
f 46/1/5 34/37/5 49/38/5
f 50/41/17 51/42/17 52/43/17
f 50/41/17 52/43/17 53/44/17
f 51/41/9 50/42/9 54/45/9
f 51/41/9 54/45/9 33/46/9
f 50/41/7 53/47/7 55/48/7
f 50/41/7 55/48/7 54/46/7
f 52/41/20 51/47/20 33/48/20
f 52/41/20 33/48/20 56/46/20
f 53/41/5 52/42/5 56/45/5
f 53/41/5 56/45/5 55/46/5
f 57/1/23 58/49/23 52/50/23
f 57/1/23 52/50/23 44/51/23
f 44/1/20 52/49/20 59/52/20
f 44/1/20 59/52/20 60/53/20
f 60/1/19 59/49/19 61/50/19
f 60/1/19 61/50/19 62/51/19
f 63/1/24 64/49/24 65/52/24
f 63/1/24 65/52/24 66/53/24
f 64/1/18 63/49/18 67/52/18
f 64/1/18 67/52/18 68/53/18
f 66/1/20 65/49/20 56/52/20
f 66/1/20 56/52/20 48/53/20
g back
usemtl Back
v -54.359375 0.000004 57.072754
v 42.640625 0.000004 57.072754
v 42.640625 0.000004 58.072754
v -54.359375 0.000004 58.072754
v -54.359375 61.0 57.072758
v 42.640625 61.0 57.072758
v 42.640625 60.999992 58.072758
v -54.359375 60.999992 58.072758
vt 0.97 0.0 0
vt 0.97 0.01 0
vt 0.0 0.01 0
vt 0.97 0.76 0
vn 0.0 -0.0000001 1.0
f 69/1/24 70/54/24 71/55/24
f 69/1/24 71/55/24 72/56/24
f 70/1/7 69/54/7 73/57/7
f 70/1/7 73/57/7 74/38/7
f 72/1/25 71/54/25 75/57/25
f 72/1/25 75/57/25 76/38/25
g shelf
usemtl Shelf
v -54.359375 30.000002 58.072754
v 42.640625 30.000002 58.072754
v 42.640625 29.999998 95.072754
v -54.359375 29.999998 95.072754
v 42.640625 31.999996 95.072754
v -54.359375 31.999996 95.072754
v 42.640625 32.0 58.072754
v -54.359375 32.0 58.072754
vt -0.37 0.97 0
vt -0.37 -0.0 0
f 77/1/17 78/49/17 79/58/17
f 77/1/17 79/58/17 80/59/17
f 80/1/20 79/49/20 81/52/20
f 80/1/20 81/52/20 82/53/20
f 82/1/19 81/49/19 83/58/19
f 82/1/19 83/58/19 84/59/19
g duct2
usemtl Duct2
v -20.558022 63.999996 77.67275
v 8.839264 63.999996 77.67276
v 8.839264 69.0 77.67276
v -20.558022 69.0 77.67276
v 8.839272 64.0 58.07276
v -20.558022 64.0 58.072758
v -20.558022 69.0 58.072765
v 8.839272 69.0 58.07277
v -20.759377 64.0 58.27276
v -20.759377 63.999996 77.47275
v -20.759377 69.0 77.472755
v -20.759377 69.0 58.272766
v 8.839264 64.0 58.272766
v 8.839264 63.999996 77.47276
v 8.839264 69.0 77.47276
v 8.839264 69.0 58.272774
v 9.040619 63.999996 77.47276
v -20.759377 63.999996 77.472755
v -20.759377 69.0 77.47276
v 9.040619 69.0 77.47276
v -20.759369 64.0 58.27276
v 9.040627 64.0 58.27276
v 9.040627 69.0 58.27277
v -20.759369 69.0 58.272766
v -20.558022 63.999996 77.47275
v -20.558022 64.0 58.27276
v -20.558022 69.0 58.272766
v -20.558022 69.0 77.472755
v 9.040619 64.0 58.272766
v 9.040619 69.0 58.272774
vn -0.0000001 -0.0000008 1.0
vn 0.0000001 0.0000015 -1.0
vn 0.0000001 0.0000008 -1.0
vn 0.0 -0.0000023 1.0
vn -0.0000001 -0.0000015 1.0
vn 0.7047102 -0.0000005 0.7094953
vn -0.7047304 0.0000011 -0.7094753
vn -0.7047102 -0.0000005 0.7094953
vn 0.7047102 0.0000011 -0.7094953
vn 0.7047169 0.0000016 -0.70948863
f 85/1/26 86/2/26 87/3/26
f 85/1/26 87/3/26 88/4/26
f 89/1/27 90/2/27 91/3/27
f 89/1/27 91/3/27 92/4/27
f 93/1/5 94/5/5 95/6/5
f 93/1/5 95/6/5 96/4/5
f 97/1/5 98/5/5 99/6/5
f 97/1/5 99/6/5 100/4/5
f 101/1/28 102/7/28 103/8/28
f 101/1/28 103/8/28 104/4/28
f 105/1/29 106/7/29 107/8/29
f 105/1/30 107/8/30 108/4/30
f 109/1/9 110/5/9 111/6/9
f 109/1/9 111/6/9 112/4/9
f 101/1/9 113/5/9 114/6/9
f 101/1/9 114/6/9 104/4/9
f 86/1/31 101/9/31 104/10/31
f 86/1/31 104/10/31 87/4/31
f 90/1/32 105/9/32 108/10/32
f 90/1/32 108/10/32 91/4/32
f 102/1/33 85/9/33 88/10/33
f 102/1/33 88/10/33 103/4/33
f 106/1/34 89/9/34 92/10/34
f 106/1/35 92/10/35 107/4/35
f 88/1/15 87/2/15 104/11/15
f 88/1/15 104/11/15 103/12/15
f 92/1/15 91/2/15 108/11/15
f 92/1/15 108/11/15 107/12/15
f 96/1/15 95/5/15 112/13/15
f 96/1/15 112/13/15 111/14/15
f 100/1/15 99/5/15 104/13/15
f 100/1/15 104/13/15 114/14/15
